<svg width="240" height="240" viewBox="0 0 240 240" fill="none" xmlns="http://www.w3.org/2000/svg">
<path d="M190 20H40C28.9543 20 20 28.9543 20 40V200C20 211.046 28.9543 220 40 220H190C201.046 220 210 211.046 210 200V40C210 28.9543 201.046 20 190 20Z" fill="#D9D9D9"/>
<path d="M160 20H40C28.9543 20 20 28.9543 20 40V170C20 181.046 28.9543 190 40 190H160C171.046 190 180 181.046 180 170V40C180 28.9543 171.046 20 160 20Z" fill="#FC6011"/>
<path d="M60 110C60 87.9086 77.9086 70 100 70C122.091 70 140 87.9086 140 110C140 132.091 122.091 150 100 150C77.9086 150 60 132.091 60 110Z" fill="white"/>
<path d="M130 65C130 62.2386 132.239 60 135 60C137.761 60 140 62.2386 140 65C140 67.7614 137.761 70 135 70C132.239 70 130 67.7614 130 65Z" fill="#FC6011"/>
<path d="M70 155C70 152.239 67.7614 150 65 150C62.2386 150 60 152.239 60 155C60 157.761 62.2386 160 65 160C67.7614 160 70 157.761 70 155Z" fill="#FC6011"/>
<path d="M40 20H190C201.046 20 210 28.9543 210 40V200C210 211.046 201.046 220 190 220H40C28.9543 220 20 211.046 20 200V40M40 20C28.9543 20 20 28.9543 20 40M40 20H160C171.046 20 180 28.9543 180 40V170C180 181.046 171.046 190 160 190H40C28.9543 190 20 181.046 20 170V40M94 116.666L88.374 124.48M88.374 124.48L70 150M88.374 124.48L97 110H100V113.333L88.374 124.48ZM100 70C77.9086 70 60 87.9086 60 110C60 132.091 77.9086 150 100 150C122.091 150 140 132.091 140 110C140 87.9086 122.091 70 100 70ZM135 60C132.239 60 130 62.2386 130 65C130 67.7614 132.239 70 135 70C137.761 70 140 67.7614 140 65C140 62.2386 137.761 60 135 60ZM65 150C67.7614 150 70 152.239 70 155C70 157.761 67.7614 160 65 160C62.2386 160 60 157.761 60 155C60 152.239 62.2386 150 65 150Z" stroke="black" stroke-width="20" stroke-linecap="round" stroke-linejoin="round"/>
</svg>
